<?xml version="1.0" encoding="utf-8"?>
<!-- Generator: Adobe Illustrator 16.0.4, SVG Export Plug-In . SVG Version: 6.00 Build 0)  -->
<!DOCTYPE svg PUBLIC "-//W3C//DTD SVG 1.1//EN" "http://www.w3.org/Graphics/SVG/1.1/DTD/svg11.dtd">
<svg version="1.1" id="heart" xmlns="http://www.w3.org/2000/svg" xmlns:xlink="http://www.w3.org/1999/xlink" x="0px" y="0px"
	 width="260.1px" height="96.4px" viewBox="62.8 58.3 260.1 96.4" enable-background="new 62.8 58.3 260.1 96.4"
	 xml:space="preserve">
<g>
	<path d="M70.8,78.7c0,0-0.2,0.4-0.5,1c-0.2,0.3-0.3,1.4-0.5,3.2c-0.9,8.2-1.4,15.8-1.4,22.7c0,5.7,0.6,9.5,1.9,11.2
		c-0.8,0.5-1.4,0.8-1.8,0.8c-1.7,0-2.8-1.4-3.1-4.2c-0.3-2.5-0.5-4.2-0.5-5.3l0.4-28.4c0-0.6,0.4-1.2,1.1-1.8c0.8-0.6,1.4-1,2-1
		c0.4,0,0.8,0.2,1.5,0.6C70.5,78,70.8,78.4,70.8,78.7z"/>
</g>
<g>
	<path d="M237.4,112.1c0,2.2-1.4,4-4.2,5.2c-2.2,1-4.6,1.4-7.2,1.4c-2.4,0-4.9-0.5-7.7-1.4c-3.6-1.2-5.4-2.8-5.4-4.6
		c0-1,0.5-1.5,1.4-1.5c0.8,0,1.6,0.4,2.6,1.3c1.4,1.3,2.2,2,2.3,2.1c1.5,1,4,1.5,7.4,1.5c4.6,0,6.8-1.2,6.8-3.6c0-1.1-1-2.5-2.9-4.1
		c-0.3-0.2-1.8-1.3-4.5-3.2c-4.3-3-7-5.2-8.1-6.4c-2.5-2.7-3.8-5.8-3.8-9.4c0-3.3,0.9-6.3,2.8-9c2.1-3,4.7-4.6,7.9-4.6
		c2.7,0,5,1.1,6.9,3.4c1.7,2,2.8,4.4,3.3,7.3c0,1,0.2,2.4,0.5,4.4L236,93c0,3.2-0.8,4.8-2.3,4.8c-0.4,0-0.8-0.2-1.2-0.7
		c-0.4-0.5-0.6-0.9-0.6-1.3c0-0.6,0.1-1.4,0.3-2.5c0.2-1.1,0.3-1.9,0.3-2.5c0-2.8-0.4-5.2-1.3-7.3c-1.2-2.9-2.9-4.3-5.2-4.3
		c-2.3,0-4.3,1-5.9,3.1c-1.6,2.1-2.4,4.3-2.4,6.8c0,3.3,1.7,6.4,5.1,9.4c3.1,2.3,6.3,4.6,9.5,6.9
		C235.7,107.8,237.4,110.1,237.4,112.1z"/>
	<path d="M265.9,78.4c0,3.1-0.5,7.7-1.6,13.8c-0.7,4.1-2,8.9-3.7,14.4c-2.4,7.5-4.6,11.3-6.5,11.3c-1.7,0-3.1-0.3-4.1-0.8
		c-2-1.1-3.9-6.1-5.6-14.9c-0.4-2-1.3-7.8-2.8-17.4c-0.2-1.2-0.6-2.8-1.1-4.7c0,0-0.1-0.2-0.3-0.4c-0.2-0.2-0.3-0.5-0.3-0.7
		c0-0.5,0.4-0.9,1.1-1.4c0.7-0.4,1.3-0.6,1.9-0.6c0.7,0,1.3,0.3,1.9,0.8c0.6,0.5,0.8,1.2,0.8,1.8c0,0.8-0.1,2-0.1,3.5
		c-0.1,1.5-0.1,2.7-0.1,3.5c0,2.1,0.7,6.3,2,12.4c2.1,9.9,3.8,14.8,5.2,14.8c0.9,0,2-1.1,3.2-3.3c1.9-3.4,3.7-8.5,5.3-15.2
		c1.5-6.5,2.3-11.8,2.3-16c0-1.5-0.4-2.5-1.1-3.1c0.8-1.2,1.4-1.7,1.9-1.7c0.6,0,1.1,0.5,1.5,1.5C265.7,76.9,265.9,77.7,265.9,78.4z
		"/>
	<path d="M294.8,107.3c0,3.3-1.4,5.9-4.2,7.9c-2.6,1.8-5.7,2.7-9.4,2.7c-4.8,0-8.3-2.1-10.5-6.2c-1.7-3.2-2.5-7.4-2.5-12.7
		c0-5.3,1-10.2,3.1-14.8c2.7-5.7,6.3-8.6,11-8.6c0.4,0,1,0.2,1.8,0.5c2.3,0.9,4.3,3,6,6.2c1.6,3,2.4,5.9,2.4,8.6
		c0,4.9-1,7.3-2.9,7.3c-1.1,0-1.7-0.5-1.7-1.4c0-0.2,0.3-0.7,0.8-1.7c0.5-1,0.8-1.8,0.8-2.4c0-2.8-0.5-5.6-1.6-8.4
		c-1.4-3.6-3.3-5.4-5.8-5.4c-2.5,0-4.7,1.5-6.5,4.5c-1.4,2.4-2.4,5-2.9,8c-0.5,3-0.8,5.6-0.8,7.8c0,4.2,0.4,7.3,1.1,9.3
		c1.1,3.1,3.2,5.2,6.5,6.1c1,0.3,1.9,0.5,2.5,0.5c1.8,0,3.6-0.5,5.2-1.4c1.6-0.9,2.9-2.2,3.7-3.7c0.8-1.4,1.2-2.4,1.2-3
		c0-0.9-0.7-1.3-2-1.3c-2.8,0-5,0.4-6.6,1.2c-1.6,0.8-2.4,1.2-2.3,1.2c-1.3,0-2-1.1-2-3.2c0-0.5,0.3-0.9,0.8-1.2
		c0.5-0.3,2-0.7,4.4-1.1c2.3-0.4,3.8-0.6,4.7-0.6c1.6,0,3,0.5,4.1,1.4S294.8,105.7,294.8,107.3z"/>
	<path d="M321.8,112.1c0,2.2-1.4,4-4.2,5.2c-2.2,1-4.6,1.4-7.2,1.4c-2.4,0-4.9-0.5-7.7-1.4c-3.6-1.2-5.4-2.8-5.4-4.6
		c0-1,0.5-1.5,1.4-1.5c0.8,0,1.6,0.4,2.6,1.3c1.4,1.3,2.2,2,2.3,2.1c1.5,1,4,1.5,7.4,1.5c4.6,0,6.8-1.2,6.8-3.6c0-1.1-1-2.5-2.9-4.1
		c-0.3-0.2-1.8-1.3-4.5-3.2c-4.3-3-7-5.2-8.1-6.4c-2.5-2.7-3.8-5.8-3.8-9.4c0-3.3,0.9-6.3,2.8-9c2.1-3,4.7-4.6,7.9-4.6
		c2.7,0,5,1.1,6.9,3.4c1.7,2,2.8,4.4,3.3,7.3c0,1,0.2,2.4,0.5,4.4l0.5,2.2c0,3.2-0.8,4.8-2.3,4.8c-0.4,0-0.8-0.2-1.2-0.7
		c-0.4-0.5-0.6-0.9-0.6-1.3c0-0.6,0.1-1.4,0.3-2.5s0.3-1.9,0.3-2.5c0-2.8-0.4-5.2-1.3-7.3c-1.2-2.9-2.9-4.3-5.2-4.3
		c-2.3,0-4.3,1-5.9,3.1c-1.6,2.1-2.4,4.3-2.4,6.8c0,3.3,1.7,6.4,5.1,9.4c3.1,2.3,6.3,4.6,9.5,6.9
		C320.1,107.8,321.8,110.1,321.8,112.1z"/>
</g>
<path fill="#E71E25" d="M169.4,58.3c-10.3,0-19.2,5.6-24.1,13.8c-4.8-8.3-13.8-13.8-24.1-13.8c-15.4,0-27.9,12.5-27.9,27.9
	c0,37.8,50.2,68.4,52,68.5c1.8,0,52-30.6,52-68.5C197.3,70.8,184.8,58.3,169.4,58.3z"/>
</svg>
