<?xml version="1.0" encoding="utf-8"?>
<!DOCTYPE svg PUBLIC "-//W3C//DTD SVG 1.1//EN" "http://www.w3.org/Graphics/SVG/1.1/DTD/svg11.dtd">
<svg xmlns="http://www.w3.org/2000/svg" xmlns:xlink="http://www.w3.org/1999/xlink">
			<defs>
				<svg id="coffee-pot-def" viewBox="-115 8.8 90 82.3">
				<path id="glass" fill="#CDEBF4" d="M-99.5,35.6c-7.7,6.5-12.3,16.2-12.3,26.3c0,7.3,3.2,13.6,9.2,18.3c6,4.7,14.4,7.3,23.6,7.3
					c9.2,0,17.5-2.6,23.6-7.3c6-4.7,9.2-11,9.2-18.3c0-10.4-4.8-20.3-12.8-26.8c-0.6-0.5-2-1.5-4.5-1.5c-2.5,0-27.7,0-30.8,0
					C-97.5,33.6-98.7,34.9-99.5,35.6z"/>
				<path d="M-25.5,48.3c-3.1-8-9.4-20.6-13.1-28.9c-0.8-1.8-0.9-8.5-3.1-9.4c-2.2-1-6.7,2.2-13.6,2.3c-1.9,2.2-4.6,6.3-5.8,8
					c-0.2-0.5-0.7-0.9-1.2-0.9h-0.5v-5.3c0-0.3-0.3-0.6-0.6-0.6c0,0-32.3-4.4-34.4-4.7c-2.1-0.3-1.9,1.3-1.7,1.6l4.7,9h-0.2
					c-0.7,0-1.3,0.6-1.3,1.4l-1.4,8.1c0,0.8,0.6,1.5,1.5,1.5h-0.3c-0.3,0-0.5-0.1-0.7-0.2c-10.6,6.6-17.6,18.6-17.6,31.8
					c0,17.5,16.1,29.1,36,29.1c19.9,0,36-11.6,36-29.1c0-13.1-7-25.1-17.5-31.7c0.5-0.2,0.9-0.7,0.9-1.3l-0.2-1.1c2.6-1.7,7-4.6,8.3-5.7
					c1.8-1.5,5.4-2.4,7.4,2c1.2,2.5,7.1,18,13.7,25.5c1.2,1.4,2.7,2.1,4.1,2.1C-25.7,51.9-24.3,51.5-25.5,48.3z M-59.8,36.3
					c7.7,6.2,12.4,15.8,12.4,25.8c0,7-3.1,13.2-8.9,17.7c-5.8,4.6-13.9,7.1-22.8,7.1c-8.8,0-16.9-2.5-22.8-7.1
					c-5.8-4.5-8.9-10.6-8.9-17.7c0-9.8,4.5-19.1,11.9-25.4c0.8-0.7,2-1.9,5-1.9s27.3,0,29.7,0C-61.7,34.8-60.4,35.7-59.8,36.3z"/>
				<path class="liquid" fill="#4C3723" d="M-108.2,61.8c0,0.1,0,0.2,0,0.3c0,6.3,2.7,11.7,7.9,15.8c5.4,4.2,13,6.6,21.3,6.6
					c8.3,0,15.9-2.3,21.3-6.6c5.2-4.1,7.9-9.5,7.9-15.8c0-0.1,0-0.2,0-0.3H-108.2z"/>
				<path fill="#FFFFFF" d="M-61.7,39c-2.5-1.2-3-0.6-1,1.4c0,0,3.1,3.1,4.2,8c1.1,4.9-0.4,9-0.4,9c-0.9,2.6-0.2,3,1.5,0.9
					c0,0,4.1-4.9,2.8-10.8C-55.9,41.8-61.7,39-61.7,39z"/>
				</svg>
<svg id="donut" viewBox="0 0 344 344">
<path id="dough" fill="#D38D4F" d="M172,0C77.007,0,0,77.007,0,172s77.007,172,172,172s172-77.007,172-172S266.993,0,172,0z
	 M172,227.5c-30.651,0-55.5-24.849-55.5-55.5c0-30.652,24.849-55.5,55.5-55.5s55.5,24.848,55.5,55.5
	C227.5,202.651,202.651,227.5,172,227.5z"/>
<g id="icing">
	<g>
		<path fill="#EE4597" d="M328.5,148c-5.5-12.5-5-25-9.5-37.5c-4.5-13.5-16.5-24-24.5-35.5c-9-13-11.5-23.5-25.5-32.5
			c-12.5-7.5-28.5-3-40-12.5c-8-6.5-12-13.5-22-18c-8.5-3.5-14-4.5-23.5-4.5c-15.611,0-29.792,1.44-43.011,7.083
			c-7.666,0.368-16.487,0.104-23.989,2.917C104,22.5,96,35,85,42c-26,16.5-43.5,34-55.5,62C24,116.5,26,128,20,140.5
			c-5,9-8.5,19.5-11.5,29.5c-3,11-5.5,33.5,1.5,43c1,11.5,16,19.5,22.5,28c9,11,11.5,25.5,19,37.5c7,12.5,19,25,33,29.5
			c14.5,4.5,27,0.5,40.5,8.5c14.5,8.5,26.5,15.5,44,18c15.5,2.5,32.5,2,48-2.5c13-3.5,25.5-14,35-23c11-10.5,25-17.5,36.5-28
			c10-8.5,17.5-19.5,22-31.5c2.5-6.5,2-12.5,5-18.5c2.5-6.5,7-12,10.5-18c5-10.5,8-21,9-32.5C336.5,167.5,334,160,328.5,148z
			 M165,105c5,0,10,2.5,16,2s12.5-2,18.5-1c13,2,24,17.5,35,25c25,16.5,6,41.5,1,64c-2.5,12-8,29.5-20.5,34c-11.5,4.5-25,3-36,7.5
			c-11.5,4.5-28,6-39-2.5c-6-5-7-13.5-14-17.5c-6.5-4-11-2.5-16-10c-11-19.5-9-49,3-67c4.5-6,10-8.5,14.5-13.5
			c3.5-4.5,3.5-10.5,7.5-14.5c3.5-4,14.5-7.5,19.5-6.5H165z"/>
	</g>
</g>
<g id="sprinkles">
	<g>
		<path fill="#FFFFFF" d="M91.134,67.468c-0.808,0-1.601-0.391-2.083-1.114c-0.766-1.149-0.456-2.701,0.693-3.467l10-6.667
			c1.149-0.766,2.701-0.455,3.467,0.693c0.766,1.149,0.456,2.701-0.693,3.467l-10,6.667C92.092,67.332,91.61,67.468,91.134,67.468z"
			/>
	</g>
	<g>
		<path fill="#FFFFFF" d="M139.906,51.816c-0.9,0-1.769-0.487-2.216-1.339l-5.582-10.644c-0.642-1.223-0.17-2.734,1.053-3.375
			c1.222-0.642,2.733-0.17,3.375,1.053l5.582,10.644c0.642,1.223,0.17,2.734-1.053,3.375
			C140.695,51.724,140.298,51.816,139.906,51.816z"/>
	</g>
	<g>
		<path fill="#FFFFFF" d="M123.454,89.381c-0.215,0-0.434-0.028-0.652-0.086c-1.333-0.359-2.123-1.731-1.764-3.064l3.126-11.605
			c0.36-1.333,1.733-2.12,3.064-1.764c1.333,0.359,2.123,1.731,1.764,3.064l-3.126,11.605
			C125.566,88.646,124.557,89.381,123.454,89.381z"/>
	</g>
	<g>
		<path fill="#FFFFFF" d="M151.226,70.402c-0.876,0-1.726-0.461-2.185-1.28c-0.674-1.205-0.243-2.728,0.962-3.402l10.49-5.867
			c1.204-0.673,2.728-0.243,3.402,0.962c0.674,1.205,0.243,2.728-0.962,3.402l-10.49,5.867
			C152.058,70.299,151.639,70.402,151.226,70.402z"/>
	</g>
	<g>
		<path fill="#FFFFFF" d="M183.741,39.771c-0.152,0-0.308-0.014-0.463-0.043l-11.813-2.212c-1.357-0.254-2.251-1.561-1.998-2.917
			c0.254-1.358,1.561-2.25,2.917-1.998l11.813,2.212c1.357,0.254,2.251,1.561,1.997,2.917
			C185.971,38.932,184.921,39.771,183.741,39.771z"/>
	</g>
	<g>
		<path fill="#FFFFFF" d="M217.767,60.417c-0.236,0-0.478-0.034-0.716-0.105c-1.323-0.395-2.075-1.788-1.681-3.11l3.438-11.517
			c0.394-1.323,1.785-2.078,3.11-1.681c1.323,0.395,2.075,1.788,1.681,3.11l-3.438,11.517
			C219.838,59.716,218.844,60.417,217.767,60.417z"/>
	</g>
	<g>
		<path fill="#FFFFFF" d="M179.759,75.815c-0.854,0-1.687-0.438-2.153-1.227c-0.703-1.188-0.311-2.722,0.878-3.425l10.342-6.124
			c1.186-0.702,2.721-0.311,3.425,0.877c0.703,1.188,0.311,2.722-0.878,3.425l-10.342,6.124
			C180.631,75.702,180.192,75.815,179.759,75.815z"/>
	</g>
	<g>
		<path fill="#FFFFFF" d="M224.494,84.751c-0.216,0-0.435-0.028-0.652-0.086l-11.604-3.126c-1.333-0.359-2.123-1.731-1.764-3.064
			c0.359-1.334,1.733-2.122,3.064-1.764l11.604,3.126c1.333,0.359,2.123,1.731,1.764,3.064
			C226.605,84.016,225.596,84.751,224.494,84.751z"/>
	</g>
	<g>
		<path fill="#FFFFFF" d="M229.582,100.771c-0.152,0-0.308-0.014-0.463-0.043l-11.813-2.212c-1.357-0.254-2.251-1.561-1.997-2.917
			s1.56-2.25,2.917-1.998l11.813,2.212c1.357,0.254,2.251,1.561,1.997,2.917C231.812,99.932,230.762,100.771,229.582,100.771z"/>
	</g>
	<g>
		<path fill="#FFFFFF" d="M263.607,121.418c-0.236,0-0.478-0.034-0.716-0.105c-1.323-0.395-2.075-1.788-1.681-3.11l3.438-11.518
			c0.395-1.322,1.786-2.075,3.11-1.681c1.323,0.395,2.075,1.788,1.681,3.11l-3.438,11.518
			C265.679,120.717,264.684,121.418,263.607,121.418z"/>
	</g>
	<g>
		<path fill="#FFFFFF" d="M270.335,145.751c-0.216,0-0.435-0.028-0.652-0.086l-11.604-3.126c-1.333-0.359-2.123-1.731-1.764-3.064
			c0.359-1.334,1.732-2.123,3.064-1.764l11.604,3.126c1.333,0.359,2.123,1.731,1.764,3.064
			C272.446,145.016,271.437,145.751,270.335,145.751z"/>
	</g>
	<g>
		<path fill="#FFFFFF" d="M272.681,84.873c-1.219,0-2.286-0.892-2.47-2.134c-0.203-1.366,0.74-2.637,2.105-2.84l11.89-1.764
			c1.374-0.201,2.638,0.74,2.84,2.106c0.203,1.366-0.74,2.637-2.105,2.84l-11.89,1.764
			C272.926,84.864,272.803,84.873,272.681,84.873z"/>
	</g>
	<g>
		<path fill="#FFFFFF" d="M252.564,63.736c-0.485,0-0.977-0.141-1.407-0.435l-9.927-6.775c-1.141-0.778-1.434-2.334-0.655-3.474
			c0.777-1.141,2.335-1.434,3.474-0.656l9.927,6.775c1.141,0.778,1.434,2.334,0.655,3.474
			C254.147,63.354,253.362,63.736,252.564,63.736z"/>
	</g>
	<g>
		<path fill="#FFFFFF" d="M253.486,101.271c-1.19,0-2.246-0.854-2.459-2.067l-2.083-11.836c-0.239-1.359,0.669-2.656,2.028-2.896
			c1.361-0.239,2.657,0.669,2.896,2.029l2.083,11.836c0.239,1.359-0.669,2.656-2.028,2.896
			C253.776,101.259,253.63,101.271,253.486,101.271z"/>
	</g>
	<g>
		<path fill="#FFFFFF" d="M296.39,103.483c-0.152,0-0.308-0.014-0.463-0.043l-11.813-2.212c-1.357-0.254-2.251-1.561-1.997-2.917
			s1.559-2.248,2.917-1.998l11.813,2.212c1.357,0.254,2.251,1.561,1.997,2.917C298.619,102.645,297.569,103.483,296.39,103.483z"/>
	</g>
	<g>
		<path fill="#FFFFFF" d="M292.407,139.527c-0.854,0-1.687-0.438-2.153-1.227c-0.703-1.188-0.311-2.721,0.878-3.425l10.342-6.123
			c1.187-0.702,2.722-0.311,3.425,0.878c0.703,1.188,0.311,2.721-0.878,3.425l-10.342,6.123
			C293.279,139.415,292.841,139.527,292.407,139.527z"/>
	</g>
	<g>
		<path fill="#FFFFFF" d="M157.458,94.275c-0.153,0-0.308-0.014-0.463-0.043l-11.813-2.212c-1.357-0.254-2.251-1.561-1.998-2.917
			c0.254-1.357,1.564-2.249,2.917-1.998l11.813,2.212c1.357,0.254,2.251,1.561,1.998,2.917
			C159.687,93.436,158.637,94.275,157.458,94.275z"/>
	</g>
	<g>
		<path fill="#FFFFFF" d="M312.298,159.386c-0.152,0-0.308-0.014-0.463-0.043l-11.813-2.212c-1.357-0.254-2.251-1.561-1.997-2.917
			c0.254-1.356,1.562-2.247,2.917-1.998l11.813,2.212c1.357,0.254,2.251,1.561,1.997,2.917
			C314.527,158.547,313.478,159.386,312.298,159.386z"/>
	</g>
	<g>
		<path fill="#FFFFFF" d="M308.315,195.43c-0.854,0-1.687-0.438-2.153-1.227c-0.703-1.188-0.311-2.722,0.878-3.425l10.342-6.123
			c1.187-0.702,2.722-0.312,3.425,0.878c0.703,1.188,0.311,2.722-0.878,3.425l-10.342,6.123
			C309.188,195.317,308.749,195.43,308.315,195.43z"/>
	</g>
	<g>
		<path fill="#FFFFFF" d="M286.311,176.183c-1.018,0-1.975-0.627-2.347-1.639l-4.147-11.281c-0.477-1.296,0.188-2.733,1.484-3.209
			c1.29-0.476,2.731,0.188,3.209,1.484l4.147,11.281c0.477,1.296-0.188,2.733-1.484,3.209
			C286.889,176.133,286.598,176.183,286.311,176.183z"/>
	</g>
	<g>
		<path fill="#FFFFFF" d="M285.992,215.981c-1.118,0-2.136-0.756-2.422-1.889c-0.338-1.339,0.473-2.698,1.812-3.036l11.653-2.943
			c1.333-0.339,2.698,0.473,3.036,1.812s-0.473,2.698-1.812,3.036l-11.653,2.943C286.401,215.956,286.195,215.981,285.992,215.981z"
			/>
	</g>
	<g>
		<path fill="#FFFFFF" d="M263.862,196.963c-0.404,0-0.814-0.098-1.194-0.305l-10.555-5.75c-1.212-0.66-1.659-2.179-0.999-3.392
			c0.66-1.212,2.18-1.66,3.392-0.999l10.555,5.75c1.212,0.66,1.659,2.179,0.999,3.392
			C265.606,196.491,264.748,196.963,263.862,196.963z"/>
	</g>
	<g>
		<path fill="#FFFFFF" d="M268.534,234.218c-1.092,0-2.095-0.721-2.405-1.823l-3.256-11.568c-0.374-1.329,0.399-2.71,1.729-3.084
			c1.331-0.38,2.71,0.4,3.084,1.729l3.256,11.568c0.374,1.329-0.399,2.71-1.729,3.084
			C268.986,234.188,268.758,234.218,268.534,234.218z"/>
	</g>
	<g>
		<path fill="#FFFFFF" d="M304.188,236.428c-0.152,0-0.308-0.014-0.463-0.043l-11.813-2.211c-1.357-0.254-2.251-1.56-1.997-2.917
			c0.254-1.356,1.56-2.251,2.917-1.997l11.813,2.211c1.357,0.254,2.251,1.56,1.997,2.917
			C306.418,235.589,305.368,236.428,304.188,236.428z"/>
	</g>
	<g>
		<path fill="#FFFFFF" d="M243.23,235.692c-0.236,0-0.478-0.034-0.716-0.105c-1.323-0.395-2.075-1.787-1.681-3.11l3.438-11.518
			c0.395-1.323,1.787-2.075,3.11-1.681s2.075,1.787,1.681,3.11l-3.438,11.518C245.302,234.991,244.307,235.692,243.23,235.692z"/>
	</g>
	<g>
		<path fill="#FFFFFF" d="M205.223,251.088c-0.854,0-1.687-0.438-2.153-1.227c-0.703-1.188-0.311-2.722,0.878-3.425l10.342-6.123
			c1.186-0.701,2.721-0.312,3.425,0.878c0.703,1.188,0.311,2.722-0.878,3.425l-10.342,6.123
			C206.095,250.976,205.656,251.088,205.223,251.088z"/>
	</g>
	<g>
		<path fill="#FFFFFF" d="M249.958,260.024c-0.216,0-0.435-0.028-0.652-0.087l-11.604-3.125c-1.333-0.359-2.123-1.73-1.764-3.064
			c0.36-1.333,1.735-2.119,3.064-1.764l11.604,3.125c1.333,0.359,2.123,1.73,1.764,3.064
			C252.069,259.289,251.061,260.024,249.958,260.024z"/>
	</g>
	<g>
		<path fill="#FFFFFF" d="M281.367,276.138c-1.159,0-2.199-0.812-2.444-1.991l-2.45-11.768c-0.281-1.352,0.586-2.676,1.938-2.957
			c1.353-0.284,2.677,0.586,2.957,1.938l2.45,11.768c0.281,1.352-0.586,2.676-1.938,2.957
			C281.708,276.12,281.536,276.138,281.367,276.138z"/>
	</g>
	<g>
		<path fill="#FFFFFF" d="M256.118,293.404c-0.524,0-1.052-0.164-1.503-0.504l-9.598-7.234c-1.103-0.831-1.322-2.398-0.491-3.501
			c0.831-1.102,2.397-1.322,3.501-0.491l9.598,7.234c1.103,0.831,1.322,2.398,0.491,3.501
			C257.625,293.061,256.876,293.404,256.118,293.404z"/>
	</g>
	<g>
		<path fill="#FFFFFF" d="M147.894,296.613c-1.324,0-2.429-1.04-2.495-2.377c-0.068-1.379,0.995-2.552,2.374-2.62l12.005-0.592
			c1.387-0.052,2.552,0.995,2.62,2.374s-0.995,2.552-2.374,2.62l-12.005,0.592C147.977,296.612,147.936,296.613,147.894,296.613z"/>
	</g>
	<g>
		<path fill="#FFFFFF" d="M109.337,296.43c-0.047,0-0.094-0.001-0.142-0.004c-1.378-0.077-2.434-1.257-2.356-2.636l0.67-12.002
			c0.077-1.379,1.247-2.448,2.636-2.356c1.378,0.077,2.434,1.257,2.356,2.636l-0.67,12.002
			C111.757,295.4,110.654,296.43,109.337,296.43z"/>
	</g>
	<g>
		<path fill="#FFFFFF" d="M134.765,268.986c-0.654,0-1.307-0.255-1.797-0.762c-0.96-0.992-0.934-2.575,0.059-3.535l8.638-8.357
			c0.993-0.961,2.575-0.934,3.535,0.059c0.96,0.992,0.934,2.575-0.059,3.535l-8.638,8.357
			C136.017,268.753,135.39,268.986,134.765,268.986z"/>
	</g>
	<g>
		<path fill="#FFFFFF" d="M109.829,262.668c-0.024,0-0.049,0-0.073-0.001l-12.013-0.346c-1.38-0.04-2.467-1.19-2.427-2.571
			c0.04-1.38,1.197-2.488,2.571-2.427l12.013,0.346c1.38,0.04,2.467,1.19,2.427,2.571
			C112.287,261.596,111.176,262.668,109.829,262.668z"/>
	</g>
	<g>
		<path fill="#FFFFFF" d="M78.876,298.272c-1.325,0-2.429-1.04-2.495-2.377c-0.068-1.38,0.995-2.553,2.375-2.62l12.004-0.59
			c1.381-0.076,2.552,0.995,2.62,2.374c0.068,1.38-0.995,2.553-2.375,2.62L79,298.27C78.959,298.271,78.917,298.272,78.876,298.272z
			"/>
	</g>
	<g>
		<path fill="#FFFFFF" d="M69.152,281.855c-0.654,0-1.307-0.255-1.797-0.762c-0.96-0.992-0.934-2.575,0.059-3.535l8.638-8.357
			c0.993-0.961,2.575-0.934,3.535,0.059s0.934,2.575-0.059,3.535l-8.638,8.357C70.404,281.622,69.777,281.855,69.152,281.855z"/>
	</g>
	<g>
		<path fill="#FFFFFF" d="M169.722,327.375c-0.654,0-1.307-0.255-1.797-0.762c-0.96-0.992-0.934-2.575,0.059-3.535l8.639-8.355
			c0.993-0.96,2.575-0.933,3.535,0.059c0.96,0.992,0.934,2.575-0.059,3.535l-8.639,8.355
			C170.975,327.142,170.348,327.375,169.722,327.375z"/>
	</g>
	<g>
		<path fill="#FFFFFF" d="M145.913,315.02c-0.024,0-0.049,0-0.073-0.001l-12.014-0.346c-1.38-0.04-2.467-1.19-2.427-2.571
			c0.04-1.38,1.186-2.501,2.571-2.427l12.014,0.346c1.38,0.04,2.467,1.19,2.427,2.571C148.372,313.947,147.26,315.02,145.913,315.02
			z"/>
	</g>
	<g>
		<path fill="#FFFFFF" d="M53.832,258.799c-1.325,0-2.429-1.04-2.495-2.377c-0.068-1.379,0.995-2.553,2.375-2.62l12.003-0.59
			c1.357-0.077,2.551,0.995,2.62,2.374c0.068,1.379-0.995,2.553-2.375,2.62l-12.003,0.59
			C53.915,258.798,53.874,258.799,53.832,258.799z"/>
	</g>
	<g>
		<path fill="#FFFFFF" d="M40.702,231.172c-0.654,0-1.307-0.255-1.797-0.762c-0.96-0.992-0.934-2.575,0.059-3.535l8.638-8.357
			c0.993-0.961,2.575-0.934,3.535,0.059s0.934,2.575-0.059,3.535l-8.638,8.357C41.954,230.938,41.327,231.172,40.702,231.172z"/>
	</g>
	<g>
		<path fill="#FFFFFF" d="M81.865,246.441c-0.81,0-1.603-0.392-2.084-1.116l-6.653-10.012c-0.764-1.15-0.452-2.702,0.698-3.466
			c1.152-0.765,2.702-0.451,3.466,0.698l6.653,10.012c0.764,1.15,0.452,2.702-0.698,3.466
			C82.82,246.307,82.34,246.441,81.865,246.441z"/>
	</g>
	<g>
		<path fill="#FFFFFF" d="M55.629,203.212c-0.901,0-1.771-0.489-2.218-1.343c-0.639-1.224-0.166-2.734,1.058-3.374l10.651-5.566
			c1.223-0.64,2.734-0.165,3.374,1.058c0.639,1.224,0.166,2.734-1.058,3.374l-10.651,5.566
			C56.415,203.12,56.019,203.212,55.629,203.212z"/>
	</g>
	<g>
		<path fill="#FFFFFF" d="M103.821,214.149c-0.216,0-0.436-0.028-0.655-0.088l-11.601-3.143c-1.333-0.361-2.12-1.734-1.759-3.066
			c0.361-1.333,1.731-2.122,3.067-1.76l11.601,3.143c1.333,0.361,2.12,1.734,1.759,3.066
			C105.931,213.416,104.922,214.149,103.821,214.149z"/>
	</g>
	<g>
		<path fill="#FFFFFF" d="M84.883,186.35c-0.877,0-1.729-0.462-2.186-1.282l-5.852-10.496c-0.672-1.206-0.24-2.729,0.966-3.401
			c1.207-0.673,2.729-0.239,3.401,0.966l5.852,10.496c0.672,1.206,0.24,2.729-0.966,3.401
			C85.712,186.248,85.294,186.35,84.883,186.35z"/>
	</g>
	<g>
		<path fill="#FFFFFF" d="M43.836,181.979c-1.324,0-2.429-1.04-2.495-2.377c-0.068-1.379,0.995-2.552,2.374-2.62l12.003-0.592
			c1.394-0.058,2.552,0.995,2.62,2.374s-0.995,2.552-2.374,2.62l-12.003,0.592C43.919,181.978,43.878,181.979,43.836,181.979z"/>
	</g>
	<g>
		<path fill="#FFFFFF" d="M30.707,154.35c-0.654,0-1.307-0.255-1.797-0.762c-0.96-0.993-0.934-2.575,0.059-3.535l8.638-8.356
			c0.993-0.96,2.577-0.933,3.535,0.059c0.96,0.993,0.934,2.575-0.059,3.535l-8.638,8.356
			C31.959,154.117,31.332,154.35,30.707,154.35z"/>
	</g>
	<g>
		<path fill="#FFFFFF" d="M103.124,146.786c-0.024,0-0.049,0-0.074-0.001l-12.014-0.347c-1.38-0.04-2.467-1.191-2.427-2.571
			c0.04-1.38,1.154-2.476,2.571-2.427l12.014,0.347c1.38,0.04,2.467,1.191,2.427,2.571
			C105.582,145.713,104.471,146.786,103.124,146.786z"/>
	</g>
	<g>
		<path fill="#FFFFFF" d="M61.929,148.935c-0.938,0-1.838-0.531-2.264-1.437l-5.114-10.876c-0.588-1.25-0.051-2.739,1.198-3.326
			c1.249-0.588,2.739-0.052,3.326,1.198l5.114,10.876c0.588,1.25,0.051,2.739-1.198,3.326
			C62.648,148.858,62.286,148.935,61.929,148.935z"/>
	</g>
	<g>
		<path fill="#FFFFFF" d="M42.31,102.329c-1.035,0-2.002-0.647-2.361-1.68c-0.454-1.304,0.236-2.729,1.541-3.182l11.353-3.947
			c1.304-0.454,2.729,0.237,3.182,1.541c0.454,1.304-0.236,2.729-1.541,3.182L43.13,102.19
			C42.859,102.285,42.582,102.329,42.31,102.329z"/>
	</g>
	<g>
		<path fill="#FFFFFF" d="M88.379,120.21c-0.334,0-0.673-0.067-0.999-0.209l-11.015-4.808c-1.266-0.552-1.844-2.026-1.291-3.291
			c0.552-1.266,2.024-1.846,3.291-1.291l11.015,4.808c1.266,0.552,1.844,2.026,1.291,3.291
			C90.261,119.649,89.343,120.21,88.379,120.21z"/>
	</g>
	<g>
		<path fill="#FFFFFF" d="M73.719,89.937c-1.01,0-1.96-0.616-2.339-1.616l-4.251-11.241c-0.488-1.292,0.163-2.734,1.454-3.223
			c1.292-0.486,2.734,0.163,3.223,1.454l4.251,11.241c0.488,1.292-0.163,2.734-1.454,3.223
			C74.312,89.884,74.013,89.937,73.719,89.937z"/>
	</g>
	<g>
		<path fill="#FFFFFF" d="M224.258,304.162c-1.324,0-2.429-1.04-2.495-2.377c-0.068-1.379,0.995-2.552,2.374-2.62l12.004-0.592
			c1.407-0.062,2.552,0.996,2.62,2.374c0.068,1.379-0.995,2.552-2.374,2.62l-12.004,0.592
			C224.341,304.161,224.299,304.162,224.258,304.162z"/>
	</g>
	<g>
		<path fill="#FFFFFF" d="M185.701,303.979c-0.047,0-0.094-0.001-0.142-0.004c-1.378-0.077-2.434-1.257-2.356-2.636l0.67-12.002
			c0.077-1.379,1.244-2.44,2.636-2.356c1.378,0.077,2.434,1.257,2.356,2.636l-0.67,12.002
			C188.121,302.949,187.019,303.979,185.701,303.979z"/>
	</g>
	<g>
		<path fill="#FFFFFF" d="M211.127,276.535c-0.653,0-1.307-0.255-1.797-0.762c-0.96-0.992-0.934-2.575,0.059-3.535l8.639-8.355
			c0.992-0.959,2.576-0.934,3.535,0.059c0.96,0.992,0.934,2.575-0.059,3.535l-8.639,8.355
			C212.38,276.302,211.753,276.535,211.127,276.535z"/>
	</g>
	<g>
		<path fill="#FFFFFF" d="M186.192,270.217c-0.024,0-0.049,0-0.073-0.001l-12.015-0.346c-1.38-0.04-2.466-1.19-2.427-2.571
			c0.04-1.38,1.214-2.479,2.571-2.427l12.015,0.346c1.38,0.04,2.467,1.19,2.427,2.571
			C188.651,269.145,187.54,270.217,186.192,270.217z"/>
	</g>
	<g>
		<path fill="#FFFFFF" d="M214.105,329.975c-0.628,0-1.257-0.235-1.743-0.708l-8.616-8.379c-0.989-0.962-1.012-2.545-0.049-3.535
			s2.545-1.012,3.535-0.049l8.616,8.379c0.989,0.962,1.012,2.545,0.049,3.535C215.407,329.722,214.757,329.975,214.105,329.975z"/>
	</g>
	<g>
		<path fill="#FFFFFF" d="M117.67,114.737c-0.024,0-0.049,0-0.073-0.001l-12.015-0.346c-1.38-0.04-2.467-1.191-2.427-2.571
			c0.04-1.381,1.203-2.469,2.571-2.427l12.015,0.346c1.38,0.04,2.467,1.191,2.427,2.571
			C120.128,113.665,119.017,114.737,117.67,114.737z"/>
	</g>
	<g>
		<path fill="#FFFFFF" d="M206.275,36.334c-0.73,0-1.454-0.318-1.948-0.931l-7.543-9.358c-0.866-1.075-0.697-2.649,0.377-3.515
			c1.076-0.867,2.648-0.697,3.516,0.377l7.543,9.358c0.866,1.075,0.697,2.649-0.377,3.515
			C207.38,36.153,206.826,36.334,206.275,36.334z"/>
	</g>
	<g>
		<path fill="#FFFFFF" d="M151.162,26.528c-0.707,0-1.41-0.298-1.904-0.879c-0.895-1.051-0.769-2.629,0.282-3.524l9.15-7.793
			c1.05-0.896,2.629-0.769,3.524,0.282c0.895,1.051,0.769,2.629-0.282,3.524l-9.15,7.793
			C152.312,26.333,151.735,26.528,151.162,26.528z"/>
	</g>
	<g>
		<path fill="#FFFFFF" d="M23.619,205.35c-0.877,0-1.729-0.462-2.186-1.282l-5.853-10.496c-0.672-1.206-0.24-2.729,0.966-3.401
			c1.207-0.672,2.729-0.239,3.401,0.966l5.853,10.496c0.672,1.206,0.24,2.729-0.966,3.401
			C24.448,205.248,24.03,205.35,23.619,205.35z"/>
	</g>
</g>
</svg>
			</defs>
		</svg>