<svg version="1.1" id="coffee-pot" xmlns="http://www.w3.org/2000/svg" xmlns:xlink="http://www.w3.org/1999/xlink" x="0px" y="0px" viewBox="-115 8.8 90 82.3" enable-background="new -115 8.8 90 82.3" xml:space="preserve">
<path id="glass" fill="#CDEBF4" d="M-99.5,35.6c-7.7,6.5-12.3,16.2-12.3,26.3c0,7.3,3.2,13.6,9.2,18.3c6,4.7,14.4,7.3,23.6,7.3
	c9.2,0,17.5-2.6,23.6-7.3c6-4.7,9.2-11,9.2-18.3c0-10.4-4.8-20.3-12.8-26.8c-0.6-0.5-2-1.5-4.5-1.5c-2.5,0-27.7,0-30.8,0
	C-97.5,33.6-98.7,34.9-99.5,35.6z"/>
<path d="M-25.5,48.3c-3.1-8-9.4-20.6-13.1-28.9c-0.8-1.8-0.9-8.5-3.1-9.4c-2.2-1-6.7,2.2-13.6,2.3c-1.9,2.2-4.6,6.3-5.8,8
	c-0.2-0.5-0.7-0.9-1.2-0.9h-0.5v-5.3c0-0.3-0.3-0.6-0.6-0.6c0,0-32.3-4.4-34.4-4.7c-2.1-0.3-1.9,1.3-1.7,1.6l4.7,9h-0.2
	c-0.7,0-1.3,0.6-1.3,1.4l-1.4,8.1c0,0.8,0.6,1.5,1.5,1.5h-0.3c-0.3,0-0.5-0.1-0.7-0.2c-10.6,6.6-17.6,18.6-17.6,31.8
	c0,17.5,16.1,29.1,36,29.1c19.9,0,36-11.6,36-29.1c0-13.1-7-25.1-17.5-31.7c0.5-0.2,0.9-0.7,0.9-1.3l-0.2-1.1c2.6-1.7,7-4.6,8.3-5.7
	c1.8-1.5,5.4-2.4,7.4,2c1.2,2.5,7.1,18,13.7,25.5c1.2,1.4,2.7,2.1,4.1,2.1C-25.7,51.9-24.3,51.5-25.5,48.3z M-59.8,36.3
	c7.7,6.2,12.4,15.8,12.4,25.8c0,7-3.1,13.2-8.9,17.7c-5.8,4.6-13.9,7.1-22.8,7.1c-8.8,0-16.9-2.5-22.8-7.1
	c-5.8-4.5-8.9-10.6-8.9-17.7c0-9.8,4.5-19.1,11.9-25.4c0.8-0.7,2-1.9,5-1.9s27.3,0,29.7,0C-61.7,34.8-60.4,35.7-59.8,36.3z"/>
<path class="liquid" fill="#4C3723" d="M-108.2,61.8c0,0.1,0,0.2,0,0.3c0,6.3,2.7,11.7,7.9,15.8c5.4,4.2,13,6.6,21.3,6.6
	c8.3,0,15.9-2.3,21.3-6.6c5.2-4.1,7.9-9.5,7.9-15.8c0-0.1,0-0.2,0-0.3H-108.2z"/>
<path fill="#FFFFFF" d="M-61.7,39c-2.5-1.2-3-0.6-1,1.4c0,0,3.1,3.1,4.2,8c1.1,4.9-0.4,9-0.4,9c-0.9,2.6-0.2,3,1.5,0.9
	c0,0,4.1-4.9,2.8-10.8C-55.9,41.8-61.7,39-61.7,39z"/>
</svg>